<svg xmlns="http://www.w3.org/2000/svg" width="260" height="261" fill="none" iconSize="260" class="sc-dlfmHC djpMyz"><path fill="#fff" d="M0 .568h260v260H0z"></path><path fill="#D3EEFD" d="M138.068 169.152c28.119 3.062 34.834 31.155 52.715 27.996 22.874-4.043 42.419-55.432 30.173-98.52-8.697-30.61-34.677-61.413-72.345-68.348-47.547-8.75-90.694 24.771-105.794 62.894-16.984 42.893-.988 98.007 22.906 104.702 22.055 6.181 38.188-32.442 72.345-28.724" opacity="0.3"></path><path stroke="#D4E5F0" stroke-miterlimit="10" stroke-width="1.95" d="M68.4 15.928h139.244"></path><path fill="#D4E5F0" stroke="#D4E5F0" stroke-width="0.65" d="M211.406 16.058a2.028 2.028 0 1 1-4.056 0 2.028 2.028 0 0 1 4.056 0ZM69.779 16.058a2.028 2.028 0 1 1-4.057 0 2.028 2.028 0 0 1 4.057 0Z"></path><path fill="#D4E5F0" d="M115.24 36.39c-5.713-3.556-10.985-4.258-15.275-8.21-1.378-1.274-3.887-5.83-7.858-5.83-3.972 0-6.48 4.556-7.859 5.83-4.29 3.952-9.561 4.654-15.275 8.21-2.853 1.774-1.943 4.68-1.943 4.68l3.53-.091c.675-2.1 10.029-8.158 17.699-11.499a9.64 9.64 0 0 1 7.69 0c7.669 3.341 17.023 9.4 17.699 11.499l3.529.09s.91-2.905-1.943-4.68z"></path><path fill="#D4E5F0" d="M92.107 24.248a.45.45 0 0 1-.455-.455V21.77c0-1.267.69-2.444 1.755-2.99 1.099-.565 1.255-1.722 1.053-2.541-.24-1.001-1.157-2.165-2.944-2.165-.39 0-1.21.52-1.476.078-.48-.8 1.001-.994 1.476-.994 2.32 0 3.516 1.54 3.835 2.866.357 1.482-.254 2.912-1.528 3.569-.767.396-1.26 1.248-1.26 2.177v2.022a.45.45 0 0 1-.456.455M70.494 34.349l4.576-1.905c.735 3.432 2.1 8.073 4.264 14.567 2.542 7.624 8.658 11.544 12.753 13.715 4.485-2.555 10.342-8.177 12.272-14.437 1.755-5.694 2.555-10.387 3.146-13.845l4.96 1.528c-1.905 5.72-4.726 29.64 1.761 29.64 0 0-.539 9.21-1.443 13.955 0 0-1.417 7.39-1.683 15.88-.338 10.569 5.648 30.192 18.538 52.312-1.989 5.681-4.609 7.943-6.988 8.788-3.204 1.137-4.621-.78-10.101-.481-6.415.351-6.987 3.113-11.784 2.645-5.18-.507-5.649-3.835-10.342-3.848-4.706-.019-5.076 3.322-10.1 3.848-5.526.579-6.358-3.315-13.716-3.848-5.356-.39-7.117 1.515-10.341 0-3.185-1.488-4.758-4.881-5.59-7.488 14.105-18.772 21.255-37.284 21.71-49.523.35-9.438-1.443-20.209-1.443-20.209a107 107 0 0 0-2.646-11.784c8.418-5.532 2.223-29.504 2.223-29.504z"></path><path fill="#D4E5F0" d="M151.16 36.149c-5.713-3.556-10.985-4.258-15.275-8.21-1.378-1.274-3.887-5.83-7.858-5.83-3.972 0-6.481 4.556-7.859 5.83-4.29 3.952-9.561 4.654-15.275 8.21-2.853 1.774-1.943 4.68-1.943 4.68l3.529-.091c.676-2.1 10.03-8.158 17.7-11.499a9.64 9.64 0 0 1 7.689 0c7.67 3.341 17.024 9.4 17.7 11.499l3.529.09s.91-2.905-1.943-4.68z"></path><path fill="#D4E5F0" d="M128.033 24.007a.453.453 0 0 1-.455-.455v-2.021c0-1.268.689-2.444 1.755-2.99 1.099-.566 1.255-1.723 1.053-2.542-.24-1.001-1.157-2.165-2.944-2.165-.39 0-1.209.52-1.476.079-.481-.8 1.001-.995 1.476-.995 2.32 0 3.516 1.54 3.835 2.867.357 1.482-.254 2.912-1.528 3.568-.767.396-1.261 1.248-1.261 2.177v2.022a.45.45 0 0 1-.455.455"></path><path fill="#C0DAEB" d="M115.189 31.391s-10.14.956-11.843 3.536c-4.459 6.76-12.727 23.231-12.727 23.231l10.777 6.838 6.897-10.257s1.235 19.455 0 36.082-5.473 38.558-4.947 65.793c18.564 4.244 39.436 5.304 55.354-2.477-2.125-24.758-9.548-49.166-11.316-64.376s-.566-36.36-.566-36.36l7.761 9.925 9.133-6.793s-8.97-19.045-12.389-22.698c-2.191-2.346-10.42-2.437-10.42-2.437-1.547 5.674-10.809 6.142-10.809 6.142l-1.248 3.29-1.456-3.192s-11.109-.156-12.201-6.24z"></path><path fill="#D4E5F0" d="M179.012 36.149c-5.714-3.556-10.985-4.258-15.275-8.21-1.378-1.274-3.887-5.83-7.859-5.83s-6.48 4.556-7.858 5.83c-4.29 3.952-9.562 4.654-15.275 8.21-2.854 1.774-1.944 4.68-1.944 4.68l3.53-.091c.676-2.1 10.029-8.158 17.699-11.499a9.65 9.65 0 0 1 7.69 0c7.67 3.341 17.023 9.4 17.699 11.499l3.53.09s.91-2.905-1.944-4.68z"></path><path fill="#D4E5F0" d="M155.879 24.007a.45.45 0 0 1-.455-.455v-2.021c0-1.268.689-2.444 1.755-2.99 1.098-.566 1.254-1.723 1.053-2.542-.241-1.001-1.157-2.165-2.945-2.165-.39 0-1.209.52-1.475.079-.481-.8 1.001-.995 1.475-.995 2.321 0 3.517 1.54 3.835 2.867.358 1.482-.253 2.912-1.527 3.568-.767.396-1.261 1.248-1.261 2.177v2.022a.453.453 0 0 1-.455.455"></path><path fill="#ECF4FA" d="M141.845 31.437s-12.376 3.575-15.632 7.052c-5.532 5.909-6.104 45.188-7.053 54.912 3.432 1.905 8.392 1.528 11.252.572l3.048-32.22.384 40.04c13.156 5.72 31.648 5.908 44.232.188l.384-40.8s3.432 22.496 3.815 32.604c4.004 2.1 8.392 1.332 11.44-.384 0-11.823-4.004-47.092-5.72-52.624-1.716-5.531-17.543-9.152-17.543-9.152s-3.049 9.724-14.3 9.34c-11.252-.383-14.3-9.535-14.3-9.535z"></path><g opacity="0.4"><mask id="empty-cart_svg__a" width="75" height="76" x="119" y="31" maskUnits="userSpaceOnUse" style="mask-type: luminance;"><path fill="#fff" d="M141.846 31.437s-12.376 3.575-15.632 7.052c-5.532 5.909-6.104 45.188-7.053 54.912 3.432 1.905 8.392 1.528 11.252.572l3.048-32.22.384 40.04c13.156 5.72 31.648 5.908 44.232.188l.384-40.8s3.432 22.496 3.815 32.604c4.004 2.1 8.392 1.332 11.44-.384 0-11.823-4.004-47.092-5.72-52.624-1.716-5.531-17.543-9.152-17.543-9.152s-3.049 9.724-14.3 9.34c-11.252-.383-14.3-9.535-14.3-9.535z"></path></mask><g stroke="#C0DAEB" stroke-linecap="round" stroke-linejoin="round" stroke-width="1.443" mask="url(#empty-cart_svg__a)"><path d="M121.487 103.756c.546-.527 1.235-1.365 1.28-2.438.078-1.748-1.618-2.36-1.56-4.12.059-1.6 1.482-1.84 1.443-3.407-.039-1.488-1.345-1.618-1.553-3.23-.221-1.742 1.228-2.158 1.196-4.212-.033-1.664-.988-1.833-.91-3.393.097-1.8 1.391-1.983 1.436-3.569.059-1.846-1.683-2.145-1.885-4.283-.156-1.703.91-1.905.93-4.043.019-1.957-.858-2.1-.806-3.965.058-2.087 1.17-2.23 1.196-4.212.019-1.911-1.008-2.126-.995-4.206.013-1.755.748-1.807.715-3.406-.052-2.19-1.449-2.49-1.397-4.446.045-1.78 1.209-1.937 1.196-3.73-.013-1.775-1.157-1.957-1.235-3.797-.072-1.807 1.014-2.08.936-3.9-.059-1.547-.871-1.943-1.378-3.627-.338-1.105-.553-2.769.156-5.109M125.939 32.425c.553.52 1.248 1.352 1.307 2.424.097 1.749-1.599 2.38-1.521 4.134.071 1.6 1.501 1.827 1.475 3.393-.026 1.489-1.332 1.632-1.521 3.244-.208 1.742 1.255 2.145 1.235 4.205-.013 1.664-.975 1.84-.871 3.406.117 1.8 1.411 1.97 1.476 3.556.078 1.846-1.664 2.158-1.84 4.296-.143 1.703.923 1.892.969 4.037.039 1.956-.839 2.112-.774 3.978.078 2.086 1.196 2.216 1.235 4.205.039 1.911-.988 2.139-.949 4.212.033 1.755.767 1.8.748 3.393-.033 2.19-1.424 2.503-1.352 4.46.065 1.78 1.228 1.923 1.235 3.717 0 1.775-1.138 1.97-1.196 3.81-.052 1.806 1.033 2.073.975 3.893-.046 1.547-.852 1.956-1.346 3.64-.325 1.105-.52 2.775.208 5.109M131.848 105.498c.546-.527 1.235-1.365 1.281-2.438.078-1.748-1.619-2.359-1.56-4.12.058-1.6 1.482-1.84 1.443-3.407-.039-1.488-1.346-1.618-1.554-3.23-.221-1.742 1.229-2.158 1.196-4.212-.032-1.664-.988-1.833-.91-3.393.098-1.8 1.391-1.983 1.437-3.569.058-1.846-1.684-2.145-1.885-4.283-.156-1.703.91-1.905.929-4.043.02-1.957-.858-2.1-.806-3.965.059-2.087 1.17-2.23 1.196-4.212.02-1.911-1.007-2.126-.994-4.206.013-1.755.747-1.807.715-3.406-.052-2.19-1.45-2.49-1.398-4.446.046-1.78 1.209-1.937 1.196-3.73-.013-1.775-1.157-1.957-1.235-3.797-.071-1.807 1.014-2.08.936-3.9-.058-1.547-.871-1.943-1.378-3.627-.338-1.105-.552-2.769.156-5.109M136.196 103.684c.546-.526 1.235-1.365 1.28-2.437.078-1.749-1.618-2.36-1.56-4.121.059-1.6 1.482-1.84 1.443-3.406-.039-1.489-1.345-1.619-1.553-3.23-.221-1.743 1.228-2.159 1.196-4.213-.033-1.664-.988-1.833-.91-3.393.097-1.8 1.391-1.982 1.436-3.568.059-1.846-1.683-2.145-1.885-4.284-.156-1.703.91-1.904.93-4.043.019-1.956-.858-2.1-.806-3.965.058-2.086 1.17-2.23 1.196-4.212.019-1.91-1.008-2.125-.995-4.205.013-1.755.748-1.807.715-3.406-.052-2.19-1.449-2.49-1.397-4.446.045-1.781 1.209-1.937 1.196-3.731-.013-1.775-1.157-1.957-1.235-3.796-.072-1.807 1.014-2.08.936-3.9-.059-1.547-.871-1.944-1.378-3.627-.338-1.105-.553-2.77.156-5.11M140.649 32.353c.553.52 1.248 1.352 1.307 2.425.097 1.749-1.599 2.379-1.515 4.134.072 1.599 1.502 1.827 1.476 3.393-.026 1.489-1.333 1.632-1.521 3.243-.208 1.742 1.254 2.145 1.235 4.206-.013 1.664-.975 1.84-.871 3.406.117 1.8 1.41 1.97 1.475 3.556.078 1.846-1.664 2.157-1.839 4.296-.143 1.703.923 1.892.968 4.037.039 1.956-.838 2.112-.773 3.977.078 2.087 1.196 2.217 1.235 4.206.039 1.911-.988 2.139-.949 4.212.032 1.755.767 1.8.747 3.393-.032 2.19-1.423 2.502-1.352 4.459.065 1.781 1.229 1.924 1.235 3.718 0 1.833-1.17 2.022-1.196 3.809-.026 1.872 1.261 2.106 1.534 4.498.156 1.385-.234 1.67-.292 3.406-.039 1.209.091 2.841.799 4.797M145.648 106.232c.552-.526 1.241-1.358 1.293-2.431.091-1.748-1.605-2.372-1.54-4.127.065-1.6 1.495-1.833 1.456-3.4-.033-1.488-1.339-1.625-1.541-3.237-.214-1.742 1.242-2.151 1.216-4.212-.02-1.664-.982-1.833-.891-3.4.104-1.8 1.398-1.975 1.456-3.561.065-1.846-1.67-2.152-1.859-4.29-.149-1.703.917-1.898.949-4.043.033-1.957-.851-2.106-.793-3.972.065-2.086 1.183-2.223 1.216-4.212.026-1.91-1.001-2.132-.969-4.212.026-1.755.761-1.8.728-3.4-.039-2.19-1.436-2.495-1.378-4.452.052-1.78 1.222-1.93 1.216-3.724 0-1.775-1.151-1.963-1.216-3.803-.065-1.807 1.021-2.073.956-3.893-.052-1.547-.858-1.95-1.365-3.634-.332-1.105-.54-2.775.182-5.109M150.009 104.438c.552-.526 1.241-1.358 1.293-2.431.091-1.748-1.605-2.372-1.54-4.127.065-1.6 1.495-1.833 1.456-3.4-.033-1.488-1.339-1.625-1.541-3.237-.214-1.742 1.242-2.151 1.216-4.212-.02-1.664-.982-1.833-.891-3.4.104-1.8 1.398-1.975 1.456-3.561.065-1.846-1.67-2.152-1.859-4.29-.149-1.703.917-1.898.949-4.043.033-1.957-.851-2.106-.793-3.972.065-2.086 1.183-2.223 1.216-4.212.026-1.91-1.001-2.132-.969-4.212.026-1.755.761-1.8.728-3.4-.039-2.19-1.436-2.495-1.378-4.452.052-1.78 1.222-1.93 1.216-3.724 0-1.775-1.151-1.963-1.216-3.803-.065-1.807 1.021-2.073.956-3.893-.052-1.547-.858-1.95-1.365-3.634-.332-1.105-.54-2.775.182-5.109M154.805 33.133c.553.527 1.242 1.359 1.294 2.431.091 1.749-1.606 2.373-1.541 4.128.065 1.599 1.495 1.833 1.456 3.4-.032 1.488-1.339 1.624-1.54 3.236-.215 1.742 1.241 2.152 1.215 4.212-.019 1.664-.981 1.833-.89 3.4.104 1.8 1.397 1.976 1.456 3.562.065 1.846-1.671 2.151-1.859 4.29-.15 1.703.916 1.898.949 4.043.032 1.956-.852 2.106-.793 3.971.065 2.087 1.183 2.223 1.215 4.212.026 1.911-1.001 2.132-.968 4.212.026 1.755.76 1.8.728 3.4-.039 2.19-1.437 2.496-1.378 4.452.052 1.781 1.222 1.93 1.215 3.725 0 1.774-1.15 1.963-1.215 3.802-.065 1.807 1.02 2.074.955 3.894-.052 1.547-.858 1.95-1.365 3.633-.331 1.105-.539 2.776.182 5.109M160.363 106.232c.553-.526 1.242-1.358 1.294-2.431.091-1.748-1.606-2.372-1.541-4.127.065-1.6 1.495-1.833 1.456-3.4-.032-1.488-1.339-1.625-1.54-3.237-.215-1.742 1.241-2.151 1.215-4.212-.019-1.664-.981-1.833-.89-3.4.104-1.8 1.397-1.975 1.456-3.561.065-1.846-1.671-2.152-1.859-4.29-.15-1.703.916-1.898.949-4.043.032-1.957-.852-2.106-.793-3.972.065-2.086 1.183-2.223 1.215-4.212.026-1.91-1.001-2.132-.968-4.212.026-1.755.76-1.8.728-3.4-.039-2.19-1.437-2.495-1.378-4.452.052-1.78 1.222-1.93 1.215-3.724 0-1.775-1.15-1.963-1.215-3.803-.065-1.807 1.02-2.073.955-3.893-.052-1.547-.858-1.95-1.365-3.634-.331-1.105-.539-2.775.182-5.109M164.724 104.438c.553-.526 1.242-1.358 1.294-2.431.091-1.748-1.606-2.372-1.541-4.127.065-1.6 1.495-1.833 1.456-3.4-.032-1.488-1.339-1.625-1.54-3.237-.215-1.742 1.241-2.151 1.215-4.212-.019-1.664-.981-1.833-.89-3.4.104-1.8 1.397-1.975 1.456-3.561.065-1.846-1.671-2.152-1.859-4.29-.15-1.703.916-1.898.949-4.043.032-1.957-.852-2.106-.793-3.972.065-2.086 1.183-2.223 1.215-4.212.026-1.91-1.001-2.132-.968-4.212.026-1.755.76-1.8.728-3.4-.039-2.19-1.437-2.495-1.378-4.452.052-1.78 1.222-1.93 1.215-3.724 0-1.775-1.15-1.963-1.215-3.803-.065-1.807 1.02-2.073.955-3.893-.052-1.547-.858-1.95-1.365-3.634-.331-1.105-.539-2.775.182-5.109M169.515 33.133c.553.527 1.242 1.359 1.294 2.431.091 1.749-1.606 2.373-1.541 4.128.065 1.599 1.495 1.833 1.456 3.4-.032 1.488-1.339 1.624-1.54 3.236-.215 1.742 1.241 2.152 1.215 4.212-.019 1.664-.981 1.833-.89 3.4.104 1.8 1.397 1.976 1.456 3.562.065 1.846-1.671 2.151-1.859 4.29-.15 1.703.916 1.898.949 4.043.032 1.956-.852 2.106-.793 3.971.065 2.087 1.183 2.223 1.215 4.212.026 1.911-1.001 2.132-.968 4.212.026 1.755.76 1.8.728 3.4-.039 2.19-1.437 2.496-1.378 4.452.052 1.781 1.222 1.93 1.215 3.725 0 1.774-1.15 1.963-1.215 3.802-.065 1.807 1.02 2.074.955 3.894-.052 1.547-.858 1.95-1.365 3.633-.331 1.105-.539 2.776.182 5.109M179.733 104.438c.553-.526 1.242-1.358 1.294-2.431.091-1.748-1.606-2.372-1.541-4.127.065-1.6 1.495-1.833 1.456-3.4-.032-1.488-1.339-1.625-1.54-3.237-.215-1.742 1.241-2.151 1.215-4.212-.019-1.664-.981-1.833-.89-3.4.104-1.8 1.397-1.975 1.456-3.561.065-1.846-1.671-2.152-1.859-4.29-.15-1.703.916-1.898.949-4.043.032-1.957-.852-2.106-.793-3.972.065-2.086 1.183-2.223 1.215-4.212.026-1.91-1.001-2.132-.968-4.212.026-1.755.76-1.8.728-3.4-.039-2.19-1.437-2.495-1.378-4.452.052-1.78 1.222-1.93 1.215-3.724 0-1.775-1.15-1.963-1.215-3.803-.065-1.807 1.02-2.073.955-3.893-.052-1.547-.858-1.95-1.365-3.634-.331-1.105-.539-2.775.182-5.109M184.531 33.133c.553.527 1.242 1.359 1.294 2.431.091 1.749-1.606 2.373-1.541 4.128.065 1.599 1.495 1.833 1.456 3.4-.032 1.488-1.339 1.624-1.54 3.236-.215 1.742 1.241 2.152 1.215 4.212-.019 1.664-.981 1.833-.89 3.4.104 1.8 1.397 1.976 1.456 3.562.065 1.846-1.671 2.151-1.859 4.29-.15 1.703.916 1.898.949 4.043.032 1.956-.852 2.106-.793 3.971.065 2.087 1.183 2.223 1.215 4.212.026 1.911-1.001 2.132-.968 4.212.026 1.755.76 1.8.728 3.4-.039 2.19-1.437 2.496-1.378 4.452.052 1.781 1.222 1.93 1.215 3.725 0 1.774-1.15 1.963-1.215 3.802-.065 1.807 1.02 2.074.955 3.894-.052 1.547-.858 1.95-1.365 3.633-.331 1.105-.539 2.776.182 5.109M175.08 106.232c.552-.526 1.241-1.358 1.293-2.431.091-1.748-1.605-2.372-1.54-4.127.065-1.6 1.495-1.833 1.456-3.4-.033-1.488-1.339-1.625-1.541-3.237-.214-1.742 1.242-2.151 1.216-4.212-.02-1.664-.982-1.833-.891-3.4.104-1.8 1.398-1.975 1.456-3.561.065-1.846-1.67-2.152-1.859-4.29-.149-1.703.917-1.898.949-4.043.033-1.957-.851-2.106-.793-3.972.065-2.086 1.183-2.223 1.216-4.212.026-1.91-1.001-2.132-.969-4.212.026-1.755.761-1.8.728-3.4-.039-2.19-1.436-2.495-1.378-4.452.052-1.78 1.222-1.93 1.216-3.724 0-1.775-1.151-1.963-1.216-3.803-.065-1.807 1.021-2.073.956-3.893-.052-1.547-.858-1.95-1.365-3.634-.332-1.105-.54-2.775.182-5.109"></path></g></g><path fill="#9475A4" d="M173.071 221.224c.091 3.36-1.911 5.668-4.726 5.668s-5.245-2.041-5.343-5.571c-.091-3.36 1.833-5.785 4.602-5.954 3.172-.195 5.369 2.405 5.467 5.857"></path><path fill="#B896C9" d="M167.318 225.336c1.794-.123 3.123-2.066 2.967-4.34s-1.737-4.018-3.531-3.895-3.123 2.066-2.967 4.34 1.737 4.018 3.531 3.895"></path><path fill="#664D73" d="m165.251 221.224-.104-7.267 3.406.942-.117 6.325a1.596 1.596 0 0 1-3.191.006z"></path><path fill="#9475A4" d="M166.857 221.743c.359 0 .65-.366.65-.819s-.291-.819-.65-.819-.65.367-.65.819c0 .453.291.819.65.819M207.598 230.558c.091 3.36-1.911 5.668-4.726 5.668s-5.245-2.041-5.343-5.571c-.091-3.36 1.833-5.785 4.602-5.954 3.172-.195 5.369 2.405 5.467 5.857"></path><path fill="#B896C9" d="M201.844 234.674c1.795-.123 3.123-2.067 2.967-4.341s-1.737-4.018-3.531-3.895-3.122 2.066-2.967 4.34c.156 2.275 1.737 4.019 3.531 3.896"></path><path fill="#664D73" d="m199.955 230.746-.104-7.267 3.406.942-.117 6.325a1.596 1.596 0 0 1-3.192.006z"></path><path fill="#9475A4" d="M201.488 231.13c.359 0 .65-.367.65-.819 0-.453-.291-.819-.65-.819s-.65.366-.65.819.291.819.65.819M179.988 242.862c.091 3.36-1.911 5.668-4.726 5.668s-5.245-2.041-5.343-5.571c-.091-3.36 1.833-5.785 4.602-5.954 3.172-.195 5.369 2.405 5.467 5.857"></path><path fill="#B896C9" d="M174.236 246.978c1.794-.123 3.123-2.066 2.967-4.341-.156-2.274-1.737-4.018-3.531-3.895s-3.123 2.066-2.967 4.341c.156 2.274 1.737 4.018 3.531 3.895"></path><path fill="#664D73" d="m172.298 242.472-.104-7.267 3.406.943-.117 6.324a1.596 1.596 0 0 1-3.191.007z"></path><path fill="#9475A4" d="M173.832 242.856c.359 0 .65-.367.65-.819 0-.453-.291-.819-.65-.819s-.65.366-.65.819.291.819.65.819M204.095 223.031c-1.618-.54-24.752-6.689-24.752-6.689s-11.258-2.47-11.472-3.445c0 0-.754-15.418-1.079-15.197-.325.215-2.373.65-2.373.65s.969 12.935.754 13.904-.429 1.618-2.158 2.372c-1.722.754-21.885 8.73-21.885 8.73s-6.897-2.048-7.547-3.016c-.65-.969-3.126-15.308-3.126-15.308l-3.283.176s2.743 13.949 2.958 15.346c.214 1.404 2.476 3.237 7.221 4.531s37.733 11.752 39.13 11.537c1.404-.214 27.313-10.9 28.165-11.271 1.404-.598 1.053-1.774-.566-2.314zm-28.353 10.673-30.29-9.38s18.402-7.078 19.39-7.481c1.703-.702 3.555-.579 5.603-.098 6.812 1.586 22.314 5.701 27.417 7.007 2.782.709.721 1.398-.429 1.762-.748.234-21.684 8.196-21.684 8.196zM141.923 120.155c.786-.123 2.132-.585 3.854-.604 3.53-.046 9.386 5.421 9.939 9.093.396 2.646 2.71 13.247 2.71 13.247h-2.697c.11.234-1.619-9.204-2.607-13.104-.689-2.723-4.849-6.207-7.345-6.513-.63-.078-1.82.228-3.029.377l-.825-2.502z"></path><path fill="#664D73" d="m127.181 205.207 34.144-14.475 51.903 15.847-32.065 11.31z"></path><path fill="#664D73" d="m117.43 151.413-.253-1.105 39.468-8.762 55.991 20.248.598 44.538-54.022-13.813-32.194 12.688z"></path><path stroke="#D6BBE2" stroke-linecap="round" stroke-linejoin="round" stroke-width="1.3" d="m117.905 151.037 38.266-8.788 54.533 19.562"></path><path fill="#664D73" d="M121.512 174.294c3.172.767 9.516 1.833 17.004-.202 10.576-2.873 16.53-10.055 18.421-12.551a72.2 72.2 0 0 0 25.103 7.696c13.449 1.54 24.284-1.079 30.368-3.036.273 13.462.54 26.923.813 40.391-5.872 1.326-24.072 7.826-32.197 11.076-8.125-1.95-38.35-9.425-53.811-11.674l-5.701-31.694z" opacity="0.5" style="mix-blend-mode: multiply;"></path><path fill="#8F0E2E" d="M105.341 224.708c1.293 2.418 1.703 6.701 1.638 10.354 0 0 .819 1.359 2.515.085-.26-2.282-.37-6.084.637-8.041l-4.784-2.398zM79.25 233.268c1.404 2.191 2.086 6.221 2.281 9.679 0 0 .871 1.228 2.392-.098-.403-2.138-.78-5.726.033-7.65z"></path><path fill="#F4B895" d="M91.677 246.463c-5.044-1.346-4.777-5.941-9.984-10.842-1.079-1.014-1.813-2.347-2.145-3.79-.201-.884-.143-1.651-.097-2.671.097-1.976-.13-2.945-.546-4.466-.345-1.274-.82-2.821-1.274-5.109l5.44-.897h.007l3.276-.539s.013.201.032.546c.072 1.15.247 3.913.507 6.136.104.877.215 1.677.345 2.262 3.159 5.018 8.352 11.316 11.4 14.547s-1.572 6.253-6.96 4.823"></path><path fill="#F4B895" d="M86.893 224.831a19 19 0 0 1-4.173.364 18.6 18.6 0 0 1-3.815-.501c-.345-1.274-.82-2.821-1.274-5.109l5.44-.897h3.315z" opacity="0.5" style="mix-blend-mode: multiply;"></path><path fill="#F4B895" d="M120.245 237.096c-5.506-1.339-6.084-4.42-7.17-6.09-1.085-1.664-4.667-3.081-6.337-4.999-1.664-1.917-1.164-5.252-1.079-6.584.039-.592-.085-1.346-.293-2.217-.26-1.079-.663-2.34-1.053-3.666-.708-2.392 4.628-5.551 7.547-1.384a19.6 19.6 0 0 0 1.228 4.127c1.547 3.777 4.108 7.176 6.507 9.393 3.25 3.003 7.234 7.247 7.735 8.833.5 1.586-1.586 3.92-7.085 2.587"></path><path fill="#F4B895" d="M113.088 216.283a8 8 0 0 1-4.036 1.508 7.85 7.85 0 0 1-3.686-.585c-.26-1.079-.663-2.34-1.053-3.666-.708-2.392 4.628-5.551 7.547-1.384a19.6 19.6 0 0 0 1.228 4.127" opacity="0.5" style="mix-blend-mode: multiply;"></path><path fill="#1B2C37" d="M81.401 129.294c7.963-14.554 19.747-7.183 21.619-1.268 1.521 8.613 7.209 40.742 7.839 46.189 1.008 8.626 1.248 28.529 3.01 39.475 0 0-2.958 2.437-8.32 2.002-.247-.02-.501-.046-.754-.078a19 19 0 0 1-1.463-.247c-1.027-5.798-5.531-16.946-6.636-25.194-1.112-8.242-1.32-11.648-1.775-14.203-1.735-8.385-10.842-34.534-13.52-46.676"></path><path stroke="#4B7896" stroke-miterlimit="10" stroke-width="0.975" d="M91.365 148.989s5.727 18.323 7.033 26.669c.319 9.347 4.368 25.279 7.703 40.06" opacity="0.5"></path><path fill="#1B2C37" d="M87.869 220.651c-.37-11.076-1.28-30.218-.325-38.85.604-5.447 2.268-38.038 2.717-46.768-.494-6.181-10.329-16.009-21.353-3.614-.11 12.428 2.522 34.606 3.185 47.821-.13 2.593-.26 10.504-.097 18.817.188 9.692 2.75 18.259 3.042 24.141 2.62 1.131 9.691 1.229 12.83-1.54z"></path><path stroke="#4B7896" stroke-miterlimit="10" stroke-width="0.975" d="M73.53 155.437s1.814 18.246 1.814 22.536.182 29.652 3.185 44.921" opacity="0.5"></path><path fill="#F4B895" d="M107.582 72.068c-2.125 1.71-4.244 4.856-3.354 16.465.696 9.093 1.112 17.075 2.36 19.214 2.834 4.251 10.452.299 7.449-5.616-.416-5.33-.345-15.958-1.034-20.761-.604-4.219-1.813-7.866-5.427-9.309z"></path><path fill="#F95F84" d="M117.671 116.957c1.956 0 5.876-7.293 3.867-10.504-4.108.741-6.149 7.846-3.867 10.504" opacity="0.5"></path><path fill="#F4B895" d="M106.589 107.753c.585 1.164 8.892 7.04 22.067 8.697 2.834 1.833 5.551-.988 3.055-4.569-8.066-3.783-12.194-6.936-17.777-9.848-2.334-4.582-9.256-.611-7.345 5.72"></path><path fill="#F95F84" d="M117.671 116.957s-10.862-5.414-12.571-8.983c-1.71-3.568-1.554-25.76-1.554-25.76s-1.319-8.443 4.232-10.198c4.153 2.743 4.524 4.895 5.174 8.678s1.371 19.045 1.436 21.066c3.263 1.892 5.935 3.913 7.241 4.628-3.438.624-6.363 7.046-3.958 10.569" opacity="0.4"></path><path fill="#F4B895" d="M107.408 80.72v.02c-.202 1.442-.371 2.54-.371 2.86 0 .747-13.227 2.554-22.97 1.384-1.775-.215-3.433-.527-4.876-.962l-4.062-10.96c.955-.78 2.49-2.001 4.517-3.204a31 31 0 0 1 2.763-1.45c3.113-1.423 6.987-2.495 11.453-2.242 3.003.624 6.227 2.756 11.05 4.394 1.417.787 2.444 1.164 2.866 1.456.15.104.228.163.228.163.227 2.262-.234 5.947-.598 8.54"></path><path fill="#1B2C37" d="M109.637 38.93c-1.833-2.391-1.007-4.302-2.476-7.585-1.469-3.282-3.179-5.18-7.04-3.984-2.106-4.505-6.552-5.538-10.991-3.471-3.868 1.794-4.46 5.661-8.06 7.982-3.608 2.327-5.317 4.205-5.668 7.741-.247 2.47.344 5.31 1.287 7.45 4.992 2.014 8.307 3.152 8.307 3.152s24.713.52 24.635-11.278z"></path><path fill="#1B2C37" d="M103.456 49.552c-.124 3.035-1.476 5.74.76 7.15 1.957 1.235 2.347 1.618 2.197 4.05-.201 3.282 2.841 5.102 5.174 2.105-2.905.364-2.938-2.346-1.163-3.393 2.483-1.462 2.97-3.503 1.683-6.22-.988-2.093-1.917-3.634-.858-5.428 1.489-2.515 2.321-5.629-2.353-9.854-4.829 1.755-5.434 11.59-5.434 11.59z"></path><path fill="#FFB640" d="M108.78 55.116a4.9 4.9 0 0 1-1.898.63c-.851.105-1.729-.025-2.619-.337 0 0-.111-3.75 2.138-3.79.553-.006.975.195 1.3.514 1.008.968 1.073 2.983 1.073 2.983zM104.594 57.228a.54.54 0 1 0 0-1.08.54.54 0 0 0 0 1.08M106.037 57.502a.552.552 0 1 0 0-1.105.552.552 0 0 0 0 1.105M106.083 51.275a.838.838 0 1 0 0-1.677.838.838 0 0 0 0 1.677M107.422 57.404a.533.533 0 1 0 0-1.067.533.533 0 0 0 0 1.067M108.702 56.852a.507.507 0 1 0 0-1.014.507.507 0 0 0 0 1.014"></path><path fill="#FFEDC9" d="M105.251 53.68c.182 0 .299-.377.461-.69.163-.311.384-.565.156-.701-.214-.13-.598.169-.741.533-.162.403-.065.87.124.864z"></path><path fill="#CD8907" d="M108.78 55.116a4.9 4.9 0 0 1-1.898.63c1.066-.442 1.3-2.125.819-3.62 1.007.968 1.072 2.983 1.072 2.983z" opacity="0.4"></path><path fill="#F4B895" d="M99.75 59.256c-.298 1.697-.597 3.387-.89 5.103-.09.513-.175 1.033-.266 1.553a646 646 0 0 0-1.06 6.344c-.864.5-2.496 1.274-4.582 1.196-4.908-.175-7.58-4.888-7.755-5.213a30 30 0 0 0 2.113-6.487c.383-1.891-.897-5.648-.852-7.117l13.3 4.615z"></path><path fill="#F4B895" d="M99.75 59.257c-.298 1.696-.597 3.386-.89 5.102-1.488.13-3.848.117-6.487-.832a15.3 15.3 0 0 1-4.51-2.561c.006-1.424-1.652-4.973-1.645-6.403l13.533 4.7z" opacity="0.5" style="mix-blend-mode: multiply;"></path><path fill="#1B2C37" d="M76.202 45.944c.253 2.9-2.77 4.01-2.087 8.658.533 3.608 3.816 5.46 3.816 5.46-2.399 4.18 1.352 8.476 5.583 8.106-.578 1.93.618 5.401 5.909 5.505-1.15 1.957 1.293 2.73 3.01 3.348 1.124.403 1.806 2.119.5 2.899 2.535.253 4.595-5.064 1.339-9.191 1.768-3.354.013-4.96-1.99-5.584 1.164-1.898-.415-6.74-2.619-8.034-2.203-1.287-2.996-2.6-4.647-9.9-5.811-3.867-8.801-1.26-8.801-1.26z"></path><path fill="#F4B895" d="M84.521 50.105c-1.657-3.335-5.94-9.685-.812-14.872 5.752-5.824 14.527-4.79 18.362-2.496 4.446 2.665 3.796 10.224 3.887 12.467.182 2.307.858 4.595.637 7.351-.234 2.984-1.274 6.851-2.19 7.898-1.008 1.144-3.166 1.092-5.85.572-2.925-.566-6.903-2.243-8.658-3.614-1.755-1.378-3.55-2.828-5.376-7.306"></path><path fill="#1B2C37" d="M81.766 49.162c-.111 1.846 2.97 1.489 3.607 2.88s1.995 1.221 1.586.383c-2.022-4.082-1.482-11.986 1.3-14.566 2.073-1.925 5.967-3.257 7.592-3.01s3.224-.812 4.173-1.436c.943-.624 2.522-.566 3.829.89-1.495-3.555-5.61-7.592-11.616-7.072s-11.869 5.7-12.474 12.129c-.474 5.063 2.002 9.802 2.002 9.802"></path><path fill="#1B2C37" d="M95.708 34.784c-2.659.065-5.974 1.137-7.456 3.887s-2.002 6.929.403 10.478c.488.643-2.385-.78-3.23-3.452s-.605-5.752.52-7.943c1.67-3.237 6.552-4.907 9.756-2.97z"></path><path fill="#F4B895" d="M86.231 54.18s.15 1.19-.76 1.58c-1.6.682-4.239-2.347-4.356-4.141-.123-1.788 1.385-3.445 3.452-1.781.332.533.696 1.215 1.014 2.034.338.865.533 1.658.65 2.308"></path><path fill="#FFB640" d="M87.518 60.154a4.9 4.9 0 0 1-1.872.702c-.851.13-1.729.039-2.626-.24 0 0-.253-3.745 1.99-3.868.552-.033.987.162 1.319.461 1.04.93 1.19 2.945 1.19 2.945M83.397 62.422a.533.533 0 1 0 0-1.066.533.533 0 0 0 0 1.066M84.84 62.643a.553.553 0 1 0 0-1.105.553.553 0 0 0 0 1.105M84.905 56.345a.819.819 0 1 0 0-1.638.819.819 0 0 0 0 1.637M86.224 62.494a.533.533 0 1 0 0-1.066.533.533 0 0 0 0 1.066M87.486 61.889a.507.507 0 1 0 0-1.014.507.507 0 0 0 0 1.014"></path><path fill="#FFEDC9" d="M83.93 58.847c.182-.013.286-.39.435-.709s.358-.578.13-.708c-.22-.124-.591.195-.721.559-.15.403-.033.87.156.858"></path><path fill="#CD8907" d="M87.519 60.154a4.9 4.9 0 0 1-1.873.701c1.047-.487 1.216-2.177.683-3.646 1.04.93 1.19 2.944 1.19 2.944" opacity="0.4"></path><path fill="#D72F56" d="M98.717 55.87c.89-.793 1.833-1.788 3.107-1.872 1.32-.091 2.269.559 2.405.91-.071.182-.188 1.638-1.729 1.917-2.307.416-3.672-.838-3.79-.955z"></path><path fill="#1B2C37" d="M95.997 48.269c.65-.112 1.063-.879.92-1.714-.144-.835-.787-1.422-1.438-1.31s-1.063.879-.92 1.714.787 1.421 1.438 1.31M104.919 47.02c.604-.089.995-.832.873-1.66-.121-.827-.709-1.426-1.313-1.337s-.995.831-.873 1.659.71 1.426 1.313 1.338"></path><path fill="#A9732D" d="M100.361 50.859c.8.194 1.84.701 2.6.396.371-.182.787-.67.806-1.079-.526-.637-1.371-1.079-1.618-1.963-.371-1.437-.566-2.886-.423-4.374a.11.11 0 0 1 .13-.098.11.11 0 0 1 .098.123c-.065.937.117 1.905.279 2.841.176.936.325 1.8 1.138 2.418.221.215.656.533.825.813.273.688-.429 1.462-1.001 1.787-.5.273-1.092.143-1.592-.013-.195-.059-1.898-.721-1.242-.845z" opacity="0.8" style="mix-blend-mode: multiply;"></path><path fill="#1B2C37" d="M91.75 44.82c.279-1.788 1.657-3.672 3.594-3.783.61-.084 2.43.585 1.787 1.346a.41.41 0 0 1-.416.071c-2.021-.663-3.542.91-4.751 2.438-.059.11-.24.058-.221-.072zM105.997 42.415c-1.352-1.112-1.794-1.853-3.386-.566a.36.36 0 0 1-.514-.078.36.36 0 0 1-.039-.312c.319-.942 1.463-1.71 2.483-1.248.91.43 1.326 1.235 1.612 2.1.033.09-.091.169-.162.104z"></path><path fill="#F95F84" d="M103.287 120.519c0 2.21 1.657 11.219 6.805 32.006-7.176 11.583-32.37 12.87-42.854 4.414-1.105-4.05-1.469-16.185-1.469-16.185s-1.84 4.413-4.232 12.317c-.52-3.321.547-12.285 2.1-20.247 1.203-6.13 2.691-11.674 3.972-13.592.442-.669.916-1.43 1.397-2.255 2.737-4.648 5.882-11.304 6.507-14.112.74-3.315 1.105-11.953 1.105-11.953s5.687.175 7.449-5.928a5 5 0 0 0 .09-.325c1.392-5.408-3.054-12.623-4.51-14.8a34 34 0 0 1 2.762-1.45c1.157 1.78 3.607 5.908 4.985 10.842 1.482.572 5.474.89 9.4.767l2.04 3.035.806-3.204c1.963-.189 3.731-.5 4.94-.982.8-1.91.514-6.48.371-8.326.377.214.78.312 1.092.5.864.514 1.423.76 1.735.975.572 3.198-.37 7.066-.37 8.704v.02c0 .136.006.26.026.363.234 1.463 2.353 3.757 2.97 6.994.618 3.244-2.275 6.572-4.589 7.885-.617 11.563-2.528 22.334-2.528 24.537"></path><mask id="empty-cart_svg__b" width="50" height="95" x="61" y="68" maskUnits="userSpaceOnUse" style="mask-type: luminance;"><path fill="#fff" d="M103.287 120.519c0 2.21 1.657 11.219 6.805 32.006-7.176 11.583-32.37 12.87-42.854 4.414-1.105-4.05-1.47-16.185-1.47-16.185s-1.839 4.413-4.23 12.317c-.924-5.882 3.126-29.425 6.07-33.839 2.938-4.413 7.17-13.058 7.904-16.367.741-3.315 1.105-11.953 1.105-11.953s5.688.175 7.45-5.928a5 5 0 0 0 .09-.325c1.391-5.408-3.055-12.623-4.51-14.8a34 34 0 0 1 2.762-1.45c1.157 1.78 3.607 5.908 4.985 10.842 1.482.572 5.473.89 9.4.767l2.04 3.035.806-3.204c1.963-.189 3.731-.5 4.94-.982.8-1.91.514-6.48.371-8.326.377.214.78.312 1.092.5.864.514 1.423.76 1.735.975.572 3.198-.37 7.066-.37 8.704v.02c0 .136.006.26.026.363.234 1.463 2.281 3.757 2.899 6.994.617 3.244-2.204 6.572-4.518 7.885-.617 11.563-2.528 22.334-2.528 24.537"></path></mask><g fill="#fff" mask="url(#empty-cart_svg__b)" opacity="0.6"><path d="M69.032 70.495c-.117-.234-.617-.22-1.001-.045-.072-.416-.345-.852-.605-.813s-.403.52-.35.943c-.416-.059-.904.065-.95.325-.045.253.364.54.78.624-.175.377-.201.864.026.981.248.13.677-.227.871-.624.3.325.813.54 1.014.351.189-.182.014-.663-.272-.975.331-.208.597-.559.493-.773zM75.299 78.607c-.117-.234-.618-.221-1.001-.046-.072-.416-.345-.851-.605-.812s-.403.52-.35.943c-.417-.059-.904.065-.95.325-.045.253.364.539.78.624-.175.376-.201.864.026.981.247.13.676-.228.871-.624.3.325.813.54 1.014.351.189-.182.013-.663-.273-.975.332-.208.598-.559.494-.773zM68.89 86.128c-.117-.234-.618-.222-1.001-.046-.072-.416-.345-.851-.605-.812s-.403.52-.35.942c-.417-.059-.904.065-.95.325-.045.253.364.54.78.624-.175.377-.201.864.026.981.247.13.676-.227.871-.623.3.325.813.539 1.014.35.189-.181.013-.662-.273-.975.332-.208.598-.559.494-.773zM83.39 70.495c-.117-.234-.617-.22-1-.045-.072-.416-.345-.852-.605-.813s-.403.52-.351.943c-.416-.059-.904.065-.95.325-.045.253.365.54.78.624-.175.377-.2.864.027.981.247.13.676-.227.87-.624.3.325.813.54 1.015.351.188-.182.013-.663-.273-.975.331-.208.598-.559.494-.773zM89.657 78.607c-.117-.234-.617-.221-1-.046-.072-.416-.345-.851-.605-.812s-.403.52-.351.943c-.416-.059-.904.065-.95.325-.045.253.365.539.78.624-.175.376-.2.864.027.981.247.13.676-.228.87-.624.3.325.813.54 1.015.351.188-.182.013-.663-.273-.975.331-.208.598-.559.494-.773zM82.695 84.938c-.117-.234-.617-.22-1-.045-.072-.416-.345-.852-.605-.813s-.403.52-.351.943c-.416-.059-.904.065-.95.325-.045.253.365.54.78.624-.175.377-.2.864.027.981.247.13.676-.227.87-.624.3.325.813.54 1.015.351.188-.182.013-.663-.273-.975.331-.208.598-.559.494-.773zM77.196 72.705c-.117-.234-.617-.22-1-.045-.072-.416-.345-.852-.605-.813s-.403.52-.351.943c-.416-.059-.904.065-.95.325-.045.253.365.54.78.624-.175.377-.2.864.027.981.247.13.676-.227.87-.624.3.325.813.54 1.015.351.188-.182.013-.663-.273-.975.331-.208.598-.559.494-.773zM97.749 70.495c-.117-.234-.618-.22-1.001-.045-.072-.416-.345-.852-.605-.813s-.403.52-.35.943c-.417-.059-.904.065-.95.325-.045.253.364.54.78.624-.175.377-.201.864.026.981.247.13.676-.227.871-.624.3.325.813.54 1.014.351.189-.182.013-.663-.273-.975.332-.208.598-.559.494-.773zM104.295 75.962c-.117-.234-.618-.222-1.001-.046-.072-.416-.345-.852-.605-.812-.26.038-.403.52-.351.942-.416-.059-.903.065-.949.325-.045.254.364.54.78.624-.175.377-.201.864.026.981.247.13.676-.227.871-.623.299.325.813.539 1.014.35.189-.181.013-.663-.273-.975.332-.207.598-.558.494-.773zM94.57 85.822c-.116-.234-.617-.22-1-.045-.072-.416-.345-.852-.605-.813s-.403.52-.35.943c-.417-.059-.904.065-.95.325-.045.253.364.54.78.624-.175.377-.201.864.026.981.247.13.676-.227.871-.624.3.325.813.54 1.014.351.189-.182.013-.663-.273-.975.332-.208.598-.559.494-.773zM112.107 70.495c-.117-.234-.617-.22-1.001-.045-.071-.416-.344-.852-.604-.813s-.403.52-.351.943c-.416-.059-.904.065-.949.325-.046.253.364.54.78.624-.176.377-.202.864.026.981.247.13.676-.227.871-.624.299.325.812.54 1.014.351.188-.182.013-.663-.273-.975.331-.208.598-.559.494-.773zM111.959 86.128c-.117-.234-.618-.222-1.001-.046-.072-.416-.345-.851-.605-.812s-.403.52-.351.942c-.416-.059-.903.065-.949.325-.045.253.364.54.78.624-.175.377-.201.864.026.981.247.13.676-.227.871-.623.299.325.813.539 1.014.35.189-.181.013-.662-.273-.975.332-.208.598-.559.494-.773zM78.431 93.538c-.117-.234-.617-.221-1-.046-.072-.416-.345-.851-.605-.812s-.403.52-.351.942c-.416-.058-.904.065-.95.325-.045.254.365.54.78.624-.175.377-.2.865.027.982.247.13.676-.228.87-.624.3.325.813.54 1.015.35.188-.181.013-.662-.273-.974.331-.208.598-.56.494-.774zM70.027 100.759c-.117-.234-.617-.221-1-.045-.072-.416-.345-.852-.605-.813s-.403.52-.351.943c-.416-.059-.904.065-.95.325-.045.253.365.539.78.624-.175.377-.2.864.027.981.247.13.676-.227.87-.624.3.325.813.54 1.015.351.188-.182.013-.663-.273-.975.331-.208.598-.559.494-.773zM89.188 92.979c-.117-.234-.617-.221-1-.046-.072-.416-.345-.851-.605-.812s-.403.52-.351.942c-.416-.058-.904.065-.95.325-.045.254.365.54.78.624-.175.377-.2.865.027.982.247.13.676-.228.87-.624.3.325.813.54 1.015.35.188-.181.013-.662-.273-.974.331-.208.598-.56.494-.774zM106.154 85.458c-.117-.234-.617-.22-1.001-.045-.071-.416-.344-.852-.604-.813s-.403.52-.351.943c-.416-.059-.904.065-.949.325-.046.253.364.54.78.624-.176.377-.202.864.026.981.247.13.676-.227.871-.624.299.325.812.54 1.014.351.188-.182.013-.663-.273-.975.331-.208.598-.559.494-.773zM83.242 100.805c-.117-.234-.618-.221-1.001-.046-.072-.416-.344-.851-.605-.812-.26.039-.402.52-.35.942-.416-.058-.904.065-.95.325-.045.254.365.54.78.624-.175.377-.201.865.026.982.248.13.677-.228.871-.624.3.325.813.539 1.014.351.189-.182.013-.663-.273-.975.332-.208.599-.559.495-.774zM101.87 93.258c-.117-.234-.617-.22-1.001-.045-.071-.416-.344-.852-.604-.813s-.403.52-.351.943c-.416-.059-.904.065-.95.325-.045.253.365.54.78.624-.175.377-.2.864.027.981.247.13.676-.227.871-.624.299.325.812.54 1.014.351.188-.182.013-.663-.273-.975.331-.208.598-.559.494-.773zM97.002 100.941c-.117-.234-.618-.221-1.001-.045-.072-.416-.345-.852-.605-.813s-.403.52-.35.943c-.417-.059-.904.065-.95.325-.045.253.364.539.78.624-.175.377-.201.864.026.981.247.13.676-.227.871-.624.3.325.813.54 1.014.351.189-.182.013-.663-.273-.975.332-.208.598-.559.494-.773zM111.959 100.805c-.117-.234-.618-.221-1.001-.046-.072-.416-.345-.851-.605-.812s-.403.52-.351.942c-.416-.058-.903.065-.949.325-.045.254.364.54.78.624-.175.377-.201.865.026.982.247.13.676-.228.871-.624.299.325.813.539 1.014.351.189-.182.013-.663-.273-.975.332-.208.598-.559.494-.774zM75.299 107.61c-.117-.234-.618-.221-1.001-.045-.072-.416-.345-.852-.605-.813s-.403.52-.35.943c-.417-.059-.904.065-.95.325-.045.253.364.539.78.624-.175.377-.201.864.026.981.247.13.676-.227.871-.624.3.325.813.54 1.014.351.189-.182.013-.663-.273-.975.332-.208.598-.559.494-.773zM68.89 115.131c-.117-.234-.618-.221-1.001-.046-.072-.416-.345-.851-.605-.812s-.403.52-.35.942c-.417-.058-.904.065-.95.325-.045.254.364.54.78.624-.175.377-.201.865.026.982.247.13.676-.228.871-.624.3.325.813.539 1.014.351.189-.182.013-.663-.273-.975.332-.208.598-.559.494-.774zM89.177 107.883c-.118-.234-.618-.221-1.002-.045-.071-.416-.344-.852-.604-.813s-.403.52-.351.943c-.416-.059-.903.065-.949.325-.046.253.364.539.78.624-.175.377-.201.864.026.981.247.13.676-.227.871-.624.299.325.813.54 1.014.351.188-.182.013-.663-.273-.975.332-.208.598-.559.494-.773zM83.242 115.131c-.117-.234-.618-.221-1.001-.046-.072-.416-.344-.851-.605-.812-.26.039-.402.52-.35.942-.416-.058-.904.065-.95.325-.045.254.365.54.78.624-.175.377-.201.865.026.982.248.13.677-.228.871-.624.3.325.813.539 1.014.351.189-.182.013-.663-.273-.975.332-.208.599-.559.495-.774zM104.016 107.61c-.117-.234-.618-.221-1.001-.045-.072-.416-.345-.852-.605-.813s-.403.52-.351.943c-.416-.059-.903.065-.949.325-.045.253.364.539.78.624-.175.377-.201.864.026.981.247.13.676-.227.871-.624.299.325.813.54 1.014.351.189-.182.013-.663-.273-.975.332-.208.598-.559.494-.773zM97.983 113.727c-.117-.234-.617-.221-1-.046-.072-.416-.345-.851-.605-.812s-.403.52-.351.942c-.416-.058-.904.065-.95.325-.045.254.365.54.78.624-.175.377-.2.865.027.982.247.13.676-.228.87-.624.3.325.813.539 1.015.351.188-.182.013-.663-.273-.975.331-.208.598-.559.494-.774zM111.959 115.131c-.117-.234-.618-.221-1.001-.046-.072-.416-.345-.851-.605-.812s-.403.52-.351.942c-.416-.058-.903.065-.949.325-.045.254.364.54.78.624-.175.377-.201.865.026.982.247.13.676-.228.871-.624.299.325.813.539 1.014.351.189-.182.013-.663-.273-.975.332-.208.598-.559.494-.774zM75.299 121.936c-.117-.234-.618-.221-1.001-.045-.072-.416-.345-.852-.605-.813s-.403.52-.35.943c-.417-.059-.904.065-.95.325-.045.253.364.539.78.624-.175.377-.201.864.026.981.247.13.676-.227.871-.624.3.325.813.54 1.014.351.189-.182.013-.663-.273-.975.332-.208.598-.559.494-.773zM68.89 129.457c-.117-.234-.618-.221-1.001-.046-.072-.416-.345-.851-.605-.812s-.403.52-.35.942c-.417-.058-.904.065-.95.325-.045.254.364.54.78.624-.175.377-.201.865.026.982.247.13.676-.228.871-.624.3.325.813.539 1.014.351.189-.182.013-.663-.273-.975.332-.208.598-.559.494-.774zM89.657 121.936c-.117-.234-.617-.221-1-.045-.072-.416-.345-.852-.605-.813s-.403.52-.351.943c-.416-.059-.904.065-.95.325-.045.253.365.539.78.624-.175.377-.2.864.027.981.247.13.676-.227.87-.624.3.325.813.54 1.015.351.188-.182.013-.663-.273-.975.331-.208.598-.559.494-.773zM83.242 129.457c-.117-.234-.618-.221-1.001-.046-.072-.416-.344-.851-.605-.812-.26.039-.402.52-.35.942-.416-.058-.904.065-.95.325-.045.254.365.54.78.624-.175.377-.201.865.026.982.248.13.677-.228.871-.624.3.325.813.539 1.014.351.189-.182.013-.663-.273-.975.332-.208.599-.559.495-.774zM104.016 121.936c-.117-.234-.618-.221-1.001-.045-.072-.416-.345-.852-.605-.813s-.403.52-.351.943c-.416-.059-.903.065-.949.325-.045.253.364.539.78.624-.175.377-.201.864.026.981.247.13.676-.227.871-.624.299.325.813.54 1.014.351.189-.182.013-.663-.273-.975.332-.208.598-.559.494-.773zM97.6 129.457c-.117-.234-.617-.221-1-.046-.072-.416-.345-.851-.605-.812s-.403.52-.351.942c-.416-.058-.904.065-.95.325-.045.254.365.54.78.624-.175.377-.2.865.027.982.247.13.676-.228.87-.624.3.325.813.539 1.015.351.188-.182.013-.663-.273-.975.331-.208.598-.559.494-.774zM111.959 129.457c-.117-.234-.618-.221-1.001-.046-.072-.416-.345-.851-.605-.812s-.403.52-.351.942c-.416-.058-.903.065-.949.325-.045.254.364.54.78.624-.175.377-.201.865.026.982.247.13.676-.228.871-.624.299.325.813.539 1.014.351.189-.182.013-.663-.273-.975.332-.208.598-.559.494-.774zM75.299 136.262c-.117-.234-.618-.221-1.001-.045-.072-.416-.345-.852-.605-.813s-.403.52-.35.943c-.417-.059-.904.065-.95.325-.045.253.364.539.78.624-.175.377-.201.864.026.981.247.13.676-.227.871-.624.3.325.813.54 1.014.351.189-.182.013-.663-.273-.975.332-.208.598-.559.494-.773zM68.89 143.783c-.117-.234-.618-.221-1.001-.046-.072-.416-.345-.851-.605-.812s-.403.52-.35.942c-.417-.058-.904.065-.95.325-.045.254.364.54.78.624-.175.377-.201.865.026.982.247.13.676-.228.871-.624.3.325.813.539 1.014.351.189-.182.013-.663-.273-.975.332-.208.598-.559.494-.774zM89.657 136.262c-.117-.234-.617-.221-1-.045-.072-.416-.345-.852-.605-.813s-.403.52-.351.943c-.416-.059-.904.065-.95.325-.045.253.365.539.78.624-.175.377-.2.864.027.981.247.13.676-.227.87-.624.3.325.813.54 1.015.351.188-.182.013-.663-.273-.975.331-.208.598-.559.494-.773zM83.242 143.783c-.117-.234-.618-.221-1.001-.046-.072-.416-.344-.851-.605-.812-.26.039-.402.52-.35.942-.416-.058-.904.065-.95.325-.045.254.365.54.78.624-.175.377-.201.865.026.982.248.13.677-.228.871-.624.3.325.813.539 1.014.351.189-.182.013-.663-.273-.975.332-.208.599-.559.495-.774zM104.016 136.262c-.117-.234-.618-.221-1.001-.045-.072-.416-.345-.852-.605-.813s-.403.52-.351.943c-.416-.059-.903.065-.949.325-.045.253.364.539.78.624-.175.377-.201.864.026.981.247.13.676-.227.871-.624.299.325.813.54 1.014.351.189-.182.013-.663-.273-.975.332-.208.598-.559.494-.773zM97.6 143.783c-.117-.234-.617-.221-1-.046-.072-.416-.345-.851-.605-.812s-.403.52-.351.942c-.416-.058-.904.065-.95.325-.045.254.365.54.78.624-.175.377-.2.865.027.982.247.13.676-.228.87-.624.3.325.813.539 1.015.351.188-.182.013-.663-.273-.975.331-.208.598-.559.494-.774zM111.959 143.783c-.117-.234-.618-.221-1.001-.046-.072-.416-.345-.851-.605-.812s-.403.52-.351.942c-.416-.058-.903.065-.949.325-.045.254.364.54.78.624-.175.377-.201.865.026.982.247.13.676-.228.871-.624.299.325.813.539 1.014.351.189-.182.013-.663-.273-.975.332-.208.598-.559.494-.774zM75.299 150.588c-.117-.234-.618-.221-1.001-.046-.072-.416-.345-.851-.605-.812s-.403.52-.35.942c-.417-.058-.904.065-.95.325-.045.254.364.54.78.624-.175.377-.201.865.026.982.247.13.676-.228.871-.624.3.325.813.539 1.014.351.189-.182.013-.663-.273-.975.332-.208.598-.559.494-.774zM69.039 157.569c-.117-.234-.618-.221-1.001-.045-.072-.416-.345-.852-.605-.813s-.403.52-.35.943c-.417-.059-.904.065-.95.325-.045.253.364.539.78.624-.175.377-.201.864.026.981.247.13.676-.227.871-.624.3.325.813.54 1.014.351.189-.182.013-.663-.273-.975.332-.208.598-.559.494-.773zM89.657 150.588c-.117-.234-.617-.221-1-.046-.072-.416-.345-.851-.605-.812s-.403.52-.351.942c-.416-.058-.904.065-.95.325-.045.254.365.54.78.624-.175.377-.2.865.027.982.247.13.676-.228.87-.624.3.325.813.539 1.015.351.188-.182.013-.663-.273-.975.331-.208.598-.559.494-.774zM83.242 158.108c-.117-.234-.618-.221-1.001-.045-.072-.416-.344-.852-.605-.813-.26.039-.402.52-.35.943-.416-.059-.904.065-.95.325-.045.253.365.539.78.624-.175.377-.201.864.026.981.248.13.677-.227.871-.624.3.325.813.54 1.014.351.189-.182.013-.663-.273-.975.332-.208.599-.559.495-.773zM104.016 150.588c-.117-.234-.618-.221-1.001-.046-.072-.416-.345-.851-.605-.812s-.403.52-.351.942c-.416-.058-.903.065-.949.325-.045.254.364.54.78.624-.175.377-.201.865.026.982.247.13.676-.228.871-.624.299.325.813.539 1.014.351.189-.182.013-.663-.273-.975.332-.208.598-.559.494-.774zM97.6 158.108c-.117-.234-.617-.221-1-.045-.072-.416-.345-.852-.605-.813s-.403.52-.351.943c-.416-.059-.904.065-.95.325-.045.253.365.539.78.624-.175.377-.2.864.027.981.247.13.676-.227.87-.624.3.325.813.54 1.015.351.188-.182.013-.663-.273-.975.331-.208.598-.559.494-.773zM110.802 156.9c-.117-.234-.618-.221-1.001-.046-.072-.416-.345-.851-.605-.812s-.403.52-.351.942c-.416-.058-.903.065-.949.325-.045.253.364.54.78.624-.175.377-.201.865.026.982.247.13.676-.228.871-.624.299.325.813.539 1.014.351.189-.182.013-.663-.273-.975.332-.208.598-.559.494-.774zM62.286 136.262c-.117-.234-.618-.221-1.001-.045-.072-.416-.345-.852-.605-.813s-.403.52-.35.943c-.417-.059-.904.065-.95.325-.045.253.364.539.78.624-.175.377-.201.864.026.981.247.13.676-.227.871-.624.3.325.813.54 1.014.351.189-.182.013-.663-.273-.975.332-.208.598-.559.494-.773zM62.286 150.588c-.117-.234-.618-.221-1.001-.046-.072-.416-.345-.851-.605-.812s-.403.52-.35.942c-.417-.058-.904.065-.95.325-.045.254.364.54.78.624-.175.377-.201.865.026.982.247.13.676-.228.871-.624.3.325.813.539 1.014.351.189-.182.013-.663-.273-.975.332-.208.598-.559.494-.774zM63.163 162.327c-.117-.234-.618-.221-1.001-.045-.072-.416-.345-.852-.605-.813s-.403.52-.35.943c-.417-.059-.904.065-.95.325-.045.253.364.539.78.624-.175.377-.201.864.026.981.247.13.676-.227.871-.624.3.325.813.54 1.014.351.189-.182.013-.663-.273-.975.332-.208.598-.559.494-.773z"></path></g><path fill="#8F0E2E" d="M98.223 56.462a.33.33 0 0 1-.299-.195.324.324 0 0 1 .17-.43c.045-.019.46-.155 1.065-.155.982-.332 2.847-.748 4.563-.845.345-.02.384-.221.735-.202a.32.32 0 0 1 .305.345.323.323 0 0 1-.344.305c-3.042-.169-6.039 1.131-6.065 1.144a.3.3 0 0 1-.13.026z"></path><path fill="#F4B895" d="M128.923 116.658c.416 1.534 1.859 4.316 2.197 4.999 1.833 3.705 9.23 1.001 11.355-3.146-.162-.897-5.583-4.056-10.712-6.624-4.088-.468-4.595 2.88-2.84 4.771"></path><path fill="#F4B895" d="M132.192 124.276s1.183 2.925 2.041 3.354 3.679.552 3.952-1.209c.481-.215 2.626.052 3.263-1.021a9 9 0 0 0 .91-2.249s.592.481.962 1.021c.371.539-.266 2.996 1.125 3.211.533-.052.845-2.672.845-3.634s-.663-2.288-2.821-5.239c-5.59-1.131-11.089.683-11.674 2.717 0 0 1.072-.104 2.944-.318 1.931-.052 2.516 2.138 1.229 2.892-1.658.377-2.782.481-2.782.481z"></path><path fill="#D72F56" d="M105.626 79.835c-1.3.683-5.388.897-5.388.897l-1.307 3.855-2.509-3.452c-3.568.286-9.743-.676-9.743-.676-1.489-6.084-4.2-10.179-5.33-11.537.344-.176.702-.351 1.066-.52 1.157 1.78 3.607 5.908 4.985 10.842 1.482.572 5.473.89 9.4.767l1.871 2.424.975-2.593c1.963-.189 3.731-.5 4.94-.982.8-1.91.507-6.52.364-8.365.377.214.767.325 1.079.513.39 3.556.364 6.76-.396 8.827z"></path><path fill="#B4389E" d="m104.58 78.867-.884.15s-4.192 35.919-19.955 40.852l-.175 1.274-14.56-4.166a48 48 0 0 1-1.398 2.255c-1.28 1.918-2.769 7.462-3.972 13.592 6.026 2.626 12.461 3.367 15.288 2.158 2.269-.975 5.343-8.99 6.084-12.103 5.019-2.964 18.766-13.813 19.572-44.012" opacity="0.5" style="mix-blend-mode: multiply;"></path><path fill="#FFCD50" d="M84.416 119.29c-.273 1.359-2.379 11.141-7.215 14.105-6.76.852-13.916-1.826-14.976-3.607-.448-.754-.598-1.853-.448-3.185.15-1.352.617-2.938 1.404-4.622a20 20 0 0 1 .968-1.852c.04-.208.117-.455.215-.722.702-1.865 2.69-4.855 3.92-5.05 4.764-.78 10.516.747 14.956 4.01q.603.45 1.176.93z"></path><path fill="#FF9D00" d="M84.416 119.29c-.273 1.359-2.379 11.141-7.215 14.105-6.76.852-13.916-1.826-14.976-3.607-.448-.754-.598-1.853-.448-3.185 1.45 2.281 4.53 4.03 8.684 4.862 2.327.461 5.037.728 6.63-.169.858-.488 2.528-2.893 3.562-5.155 1.97-4.322 2.827-7.15 2.905-7.442.403.299.468.273.852.591z"></path><path fill="#FF9D00" d="m83.175 120.142-.533 1.878s-4.2 6.76-13.319 3.673c-3.711-1.255-4.933-3.536-5.648-4.667.273-.611.123-.273.487-.904.04-.208.117-.455.215-.721h.032s.17 3.919 5.285 5.252c5.115 1.339 10.276.065 13.487-4.518z"></path><path fill="#FF9D00" d="M72.273 122.724c.664-.254 1.017-.944.789-1.541-.229-.597-.952-.875-1.616-.621-.664.255-1.017.944-.788 1.541s.951.875 1.615.621"></path><path stroke="#FFD04E" stroke-miterlimit="10" stroke-width="1.768" d="M103.459 70.02c0 27.085-8.905 47.963-21.35 50.066"></path><path fill="#F4B895" d="M105.964 122.365c1.053 1.352 2.678 2.372 4.004 2.983s10.186 1.424 12.422-2.951c-.202-.916-8.197-2.912-13.416-5.174-5.629-.221-3.01 5.148-3.01 5.148z"></path><path fill="#9475A4" d="m114.077 127.364 20.767-3.367c.572-.163.657-2.132-.819-2.464l-20.936 3.367z"></path><path fill="#F4B895" d="m113.401 124.588.949 2.879c-.507 0-1.3.065-1.3.065s.396 1.957 1.183 2.21c.786.254 2.314.319 2.314.319 1.807.949 4.29.377 4.569-.124.28-.5.397-1.196.397-1.196s.331.624.799.689c.813.104 1.963-.403 1.996-.962.058-.884-.286-5.096-2.035-6.253-5.005.163-8.879 2.392-8.879 2.392z"></path><path fill="#F95F84" d="M105.737 219.579s1.749 1.612 2.724 4.147c.936 2.425 4.907 5.493 7.241 6.52 2.652 1.17 4.387 1.306 5.85.448 1.729-1.007-.806-4.036-.806-4.036s4.218 3.971 7.072 6.24c2.834 2.249-.02 5.135-4.355 4.868-4.648-.292-6.65-.949-9.49-4.68-2.301-3.022-4.726-4.277-6.929-6.038s-3.062-4.232-1.3-7.462zM79.38 228.048c1.013 1.164 1.04 2.886 2.242 5.428.552 1.163 3.835 5.655 5.531 6.675 1.697 1.021 4.869 1.021 6.455.228s.565-3.738.565-3.738c2.262 2.607 5.207 5.545 5.889 6.338s.111 2.944-1.813 3.737-6.903 1.131-9.737-1.813c-2.828-2.945-4.186-6.11-5.772-7.358s-2.828-2.717-3.393-3.848c-.566-1.131.032-5.649.032-5.649"></path><path fill="#F4B895" d="M80.952 110.554c-1.625-2.158-4.68-10.439-6.48-19.98-1.268-6.728-1.398-11.74-.566-14.808q.059-.197.117-.383a.4.4 0 0 1 .026-.078q.06-.194.13-.377.489-1.297 1.26-1.97c4.746-4.075 8.028 3.582 8.568 8.08s3.061 15.119 5.22 23.036c1.624 5.941-2.516 10.263-8.275 6.48"></path><path fill="#F95F84" d="M95.602 121.526c1.957 0 4.524-7.358 3.718-10.692-3.841.526-5.772 7.917-3.718 10.692" opacity="0.5"></path><path fill="#F4B895" d="M105.963 122.365a76 76 0 0 1-11.115-3.621c-7.546-3.107-12.915-6.701-13.897-8.19-2.847-5.252 3.426-10.023 8.275-6.48 1.898 1.235 5.265 3.841 8.99 6.5 3.581 2.567 7.494 5.174 10.757 6.649 2.886 2.886-.247 6.903-3.01 5.142"></path><path fill="#9F2089" d="M108.349 115.566c-.566-.169-1.177-.072-1.807.403a4 4 0 0 0-.403.344q-.275.275-.54.618a8.7 8.7 0 0 0-1.105 1.989 8.2 8.2 0 0 0-.585 2.515c-.006.176-.013.345-.006.507.045 1.06.474 1.703 1.098 2.061.566.318 1.489 0 1.794-.65-.338-.306-.617-.683-.923-.956-.052 0-.123.468-.429.501-.078-.033-.162-.137-.227-.306a2.2 2.2 0 0 1-.124-.695c-.032-.722.156-1.645.507-2.535s.852-1.69 1.365-2.197c.247-.241.468-.384.644-.455.13-.052.227-.039.299-.033.091.007.143-.045.208.195 0 0 .942.455 1.222.559.039-1.033-.267-1.651-.995-1.865z"></path><path fill="#9F2089" d="M103.227 122.703c.468.189 1.287-.006 1.826-.331-.338-.306-.715-.67-1.027-.949-.052 0-.325.188-.357.175-.078-.032-.163-.136-.228-.305a2.2 2.2 0 0 1-.123-.696c-.033-.721.156-1.644.507-2.535.351-.89.851-1.69 1.365-2.197.247-.24.468-.383.643-.455.13-.052.234-.058.299-.032.098.039.195.182.267.422q.622.42 1.274.858v-.325c-.046-1.059-.436-1.794-1.099-2.06-.546-.215-1.176-.072-1.807.403a4 4 0 0 0-.403.344q-.275.275-.539.618a8.7 8.7 0 0 0-1.105 1.989c-.345.864-.54 1.735-.585 2.515a7 7 0 0 0-.007.507c.046 1.06.436 1.794 1.099 2.061z"></path><path fill="#F95F84" d="M99.386 110.769c-3.172 1.437-5.245 6.539-3.971 10.55-7.547-3.107-13.904-8.112-14.885-9.601-1.625-2.158-4.72-11.16-6.52-20.702-1.267-6.728-.936-12.181-.104-15.25a28 28 0 0 1 .143-.46q.061-.193.13-.378c.325-.864 1.326-3.295 5.649-5.057 4.18 5.616 4.394 8.275 4.933 12.773.54 4.498 2.685 12.96 4.843 20.878 1.898 1.235 6.058 4.589 9.782 7.247" opacity="0.4"></path><path stroke="#F95F84" stroke-linecap="round" stroke-linejoin="round" stroke-width="0.65" d="M95.422 121.319c-.241-.663-1.222-3.556.162-6.676.884-1.995 2.32-3.133 3.029-3.627M117.405 116.801c-.202-.494-1.372-3.51.162-6.675 1.105-2.282 2.99-3.341 3.653-3.673" opacity="0.5"></path><path stroke="#A9732D" stroke-linecap="round" stroke-linejoin="round" stroke-width="0.45" d="M116.748 125.361c.202.416.598 1.385.475 2.639a4.8 4.8 0 0 1-.683 2.048M118.913 124.627c.26.435.871 1.592.78 3.159a5.5 5.5 0 0 1-.826 2.574M121.305 123.964a8.504 8.504 0 0 1 .032 5.817M133.407 121.182c.897.098 1.651.696 1.898 1.521.312 1.027-.123 1.554-.188 1.638M141.514 119.856c.227.578.487 1.423.572 2.47a8.4 8.4 0 0 1-.254 2.788M139.615 120.682a8.409 8.409 0 0 1 .319 5.258"></path><path stroke="#A9732D" stroke-linecap="round" stroke-linejoin="round" stroke-width="0.45" d="M137.393 120.994c.227.578.487 1.423.572 2.47a8.4 8.4 0 0 1-.254 2.788c-.942.143-2.658.559-3.51-1.735"></path><path fill="#ECF4FA" d="M189.801 197.317c-1.989 7.93-9.405 15.925-21.294 14.508-5.057-.605-8.963-2.711-10.965-4.206-7.878-5.882-9.958-15.106-10.953-23.744-.201-1.729-.357-3.432-.513-5.083 0 0-1.047-11.258 2.483-16.842.026-.045 2.021-3.204 2.021-3.204s1.502-.26 3.705-.124c3.4.215 8.47 1.359 12.292 5.818.123.897.409 1.768.838 2.626.306.643.702 1.274 1.151 1.904 4.082 5.616 13.312 10.647 19.064 16.53q.07.066.13.143c.325.338.611.708.871 1.105 1.807 2.736 2.152 6.649 1.17 10.582z"></path><path fill="#D4E5F0" d="M189.801 197.317c-1.989 7.93-9.406 15.925-21.294 14.508-5.057-.605-8.964-2.711-10.966-4.206-7.878-5.882-9.958-15.106-10.952-23.744 6.409 10.634 22.587 16.399 31.798 10.686 6.487-4.024 8.658-7.196 9.386-8.918.383-.917.357-1.417.357-1.417s.221.949.507 2.522c.442 2.45 1.04 6.402 1.17 10.582z"></path><path fill="#ECF4FA" d="M174.52 159.578c-.11.598-.247 1.17-.403 1.722-1.144 4.232-3.159 6.988-3.367 4.843-1.482 2.489-4.244 2.671-2.899.968-3.796 2.457-5.999 1.066-4.004.143-4.946 1.248-7.429.195-5.486-.656-8.905-.715-13.936-7.345-14.41-10.387-.618 2.541-2.217-.871-.988-4.55.136-.267-.943 1.371-1.502.741-.637-.715.891-3.777 1.04-4.069-.13.162-.845 1.027-1.28.578-.345-.357.078-1.846 1.404-3.627 1.274-1.709 3.38-3.672 6.422-5.135 3.38-1.625 6.695-2.08 9.815-1.677 2.613.332 5.096 1.261 7.351 2.594a25 25 0 0 1 2.334 1.573c2.229 1.703 3.802 3.705 4.823 5.863 1.254 2.645 1.683 5.531 1.501 8.398-.058.91-.182 1.813-.344 2.678z"></path><path fill="#FF9D00" d="M167.494 141.885c.357.24.702.494 1.046.754 1.586 1.209 2.834 2.574 3.796 4.043.13.188.247.377.364.578.241.41.462.819.663 1.248 1.17 2.932 2.028 7.345 1.157 11.07-.11.598-.247 1.17-.403 1.722-17.92 2.353-29.25-9.919-31.505-16.016 1.274-1.709 3.38-3.672 6.422-5.135 3.38-1.625 6.695-2.08 9.815-1.677 3.022.377 6.74 1.924 8.638 3.413"></path><path fill="#FF9D00" d="M182.892 150.887c-.026 2.431-5.181 5.843-7.54 7.28-.702.422-1.157.669-1.157.669-5.805-4.231-3.133-11.615-3.133-11.615s.676.026 1.703.117c3.282.279 10.146 1.15 10.12 3.549zM162.866 139.135c.019.448.026.864 0 1.248l-8.145-1.508s.156-.293.416-.754c.956-1.684 3.348-5.616 4.817-5.779 1.638-.182 2.769 3.816 2.912 6.793"></path><path fill="#ECF4FA" d="M151.439 148.274c1.722-.039 3.789 1.027 4.888 2.984-.338 6.168-4.804 9.171-6.975 7.371-1.605-1.326-2.301-4.414-1.885-6.396.416-1.989 1.892-3.913 3.972-3.965z"></path><path fill="#F95F84" d="M148.651 153.701c-.371.657-.065 1.476.552 1.723.611.247 1.385-.104 1.593-.813a1.25 1.25 0 0 1-.631-.455 1.24 1.24 0 0 1-.234-.838c-.201.351-.539.559-.877.533a.75.75 0 0 1-.403-.156z"></path><path stroke="#4B7896" stroke-linecap="round" stroke-linejoin="round" stroke-width="0.546" d="m151.035 151.121-.676 1.489c-.325.702-.299 1.417.091 1.833.201.214.442.292.539.318.917.273 1.801-.572 1.879-.643"></path><path stroke="#4B7896" stroke-linecap="round" stroke-linejoin="round" stroke-width="0.546" d="M148.357 152.343c-.111.585.058 1.138.39 1.307.429.221 1.267-.117 1.605-1.04"></path><path fill="#F95F84" d="M150.886 151.368s-1.079-1.749-.319-2.048c.39-.156 2.815 1.099 2.36 1.632-.449.539-2.048.416-2.048.416z"></path><path fill="#D72F56" d="M170.529 144.53c-2.171-.065-5.44.845-5.414.234.026-.572 2.106-1.287 2.106-1.287s-1.073 0-2.997.241c-1.105.13-2.288.273-2.587.078-.312-.215-.13-.949 4.037-1.931-1.684.052-3.842.715-3.965.312-.065-.201.604-.819 1.534-1.124a13 13 0 0 1 1.865-.494c.384.195.761.403 1.131.611 1.723 1.001 3.244 2.223 4.284 3.367zM175.561 156.217s-.208-3.646-1.43-5.057c3.705-.026 7.046-.195 7.078.78.046 1.534-5.648 4.277-5.648 4.277M158.881 138.244s.539-3.347.234-4.426-3.14 4.225-3.14 4.225 1.508-.026 2.906.195z" opacity="0.5" style="mix-blend-mode: multiply;"></path><path stroke="#4B7896" stroke-linecap="round" stroke-linejoin="round" stroke-width="0.409" d="M153.135 157.153c.403.806.826 1.82 1.164 3.016.286 1.02.448 1.95.533 2.749M154.13 155.665a29 29 0 0 1 2.372 3.315 28 28 0 0 1 1.781 3.425M147.747 151.752a14.3 14.3 0 0 0-4.777-2.093M148.579 150.549a26 26 0 0 0-2.581-2.418 23 23 0 0 0-2.71-1.904"></path><path fill="#fff" d="M152.518 146.441c-1.736 1.092-3.829 1.034-4.752-.422a2.52 2.52 0 0 1-.331-1.957c.214-.89.884-1.742 1.878-2.372 1.274-.813 2.743-1.034 3.796-.501.377.182.696.468.943.852.923 1.462.201 3.302-1.534 4.4"></path><path fill="#1B2C37" d="M152.044 144.9c-1.378 1.131-3.25 1.131-4.18 0a2.3 2.3 0 0 1-.429-.832c.215-.89.884-1.742 1.879-2.372 1.274-.813 2.743-1.034 3.796-.501.585 1.131.162 2.711-1.066 3.718z"></path><path fill="#fff" d="M151.323 143.205c.537-.345.735-.995.442-1.451s-.966-.546-1.504-.2c-.537.346-.735.995-.442 1.451s.966.546 1.504.2M150.12 145.065c.256-.153.357-.454.226-.673s-.444-.272-.7-.119c-.255.152-.357.454-.226.672s.444.273.7.12"></path><path fill="#D72F56" d="M155.977 141.703a4.1 4.1 0 0 0-2.34-1.45.537.537 0 0 1-.416-.643.526.526 0 0 1 .526-.416 5.54 5.54 0 0 1 3.439 1.274c1.007.825-.371 2.236-1.216 1.241z" opacity="0.5" style="mix-blend-mode: multiply;"></path><path fill="#fff" d="M165.101 156.6c-1.709 1.56-4.225 1.71-5.804-.026-.904-.988-1.19-2.164-.943-3.282.182-.832.657-1.638 1.385-2.301 1.261-1.151 2.931-1.58 4.355-1.034.513.195.994.514 1.404.969 1.573 1.735 1.313 4.114-.403 5.674z"></path><path fill="#1B2C37" d="M163.652 154.527c-1.391 1.359-3.438 1.515-4.576.351a2.57 2.57 0 0 1-.715-1.586c.182-.832.657-1.638 1.385-2.301 1.261-1.15 2.931-1.579 4.355-1.033 1.137 1.163.929 3.204-.455 4.563z"></path><path fill="#fff" d="M162.618 152.531c.631-.406.862-1.17.516-1.708-.345-.537-1.137-.644-1.768-.238-.631.405-.862 1.17-.517 1.708.346.537 1.137.644 1.769.238M161.201 154.713c.302-.181.423-.535.27-.79-.153-.256-.522-.317-.824-.137-.302.181-.423.535-.27.79.153.256.522.317.824.137"></path><path fill="#D72F56" d="M166.674 148.151c.507.578 2.392 3.809 1.176 4.062a.54.54 0 0 1-.604-.318 6.8 6.8 0 0 0-1.846-2.561c-.943-.865.474-2.184 1.267-1.183z" opacity="0.5" style="mix-blend-mode: multiply;"></path><path fill="#ECF4FA" d="M191.94 174.762s3.036.864 6.507 0c-2.197-3.959-4.914-18.038-2.087-21.522.137-.175.286-.331.449-.487 3.399-3.205 4.01-7.982-.221-8.795-1.398-.266-3.003-.149-4.531.436-3.1 1.176-5.863 4.264-5.837 9.912.033 8.431 5.727 20.456 5.727 20.456z"></path><path fill="#FF9D00" d="M189.477 148.989c.396.357 1.826-.897 4.29-1.814-1.586 1.697-3.367 3.426-2.6 4.472.526.722 2.45-.585 4.94-1.976-2.919 2.633-2.717 3.959-2.379 4.323.286.318 1.293.533 2.632-.761.137-.175.286-.331.449-.487 3.399-3.205 4.01-7.982-.221-8.795-1.398-.266-3.003-.149-4.531.436-2.21 2.171-3.035 4.186-2.574 4.602z"></path><path fill="#9475A4" d="m212.636 161.794-34.404 11.57-60.801-21.95 9.789 54.574 53.683 12.161 32.331-11.57-.591-44.785zM138.66 200.84q-.107.011-.215.013a1.636 1.636 0 0 1-1.612-1.411l-4.257-32.188a1.626 1.626 0 0 1 3.224-.429l4.257 32.188a1.626 1.626 0 0 1-1.397 1.827m10.887 2.21c-.071.006-.143.013-.214.013a1.63 1.63 0 0 1-1.612-1.411l-3.946-29.978a1.62 1.62 0 0 1 1.398-1.82 1.62 1.62 0 0 1 1.82 1.398l3.945 29.978a1.62 1.62 0 0 1-1.397 1.82zm10.55 1.735q-.097.012-.195.013a1.62 1.62 0 0 1-1.612-1.43l-3.315-27.768a1.63 1.63 0 0 1 1.423-1.807 1.62 1.62 0 0 1 1.807 1.424l3.315 27.768a1.63 1.63 0 0 1-1.423 1.807zm11.03 2.21a2 2 0 0 1-.182.013 1.624 1.624 0 0 1-1.612-1.443l-2.996-26.981a1.626 1.626 0 0 1 1.436-1.794 1.623 1.623 0 0 1 1.794 1.436l2.997 26.982a1.63 1.63 0 0 1-1.437 1.794z"></path><path fill="#B896C9" d="m180.896 218.149-2.665-44.785 34.405-11.57.591 44.785z" opacity="0.5"></path><path stroke="#D6BBE2" stroke-linecap="round" stroke-linejoin="round" stroke-width="1.3" d="m118.191 151.069 60.405 21.716 32.522-10.871M178.596 172.733l2.34 42.757"></path><path fill="#9475A4" d="M117.177 150.309c-.331-2.49-2.418-12.285-3.49-14.872-1.58-2.373-7.625-6.006-7.82-7.839-.247-2.269 2.145-2.022 6.442-2.763 1.839-.318 2.762 1.963 1.781 2.516l-4.726.611c3.426 2.899 5.889 3.919 6.812 6.688.923 2.763 3.575 15.139 3.575 15.139l-2.567.52zM146.394 232.163c.091 3.36-1.911 5.668-4.726 5.668s-5.245-2.041-5.343-5.571c-.091-3.36 1.833-5.785 4.602-5.954 3.172-.195 5.369 2.405 5.467 5.857"></path><path fill="#B896C9" d="M140.639 236.273c1.795-.123 3.123-2.066 2.967-4.34s-1.737-4.018-3.531-3.895-3.122 2.066-2.967 4.34c.156 2.274 1.737 4.018 3.531 3.895"></path><path fill="#664D73" d="m138.445 232.273-.104-7.267 3.406.943-.117 6.324a1.596 1.596 0 0 1-3.192.007z"></path><path fill="#9475A4" d="M139.881 232.377c.359 0 .65-.366.65-.819s-.291-.819-.65-.819-.65.367-.65.819c0 .453.291.819.65.819"></path><path fill="#D4E5F0" d="M204.966 36.39c-5.713-3.556-10.985-4.258-15.275-8.21-1.378-1.274-3.887-5.83-7.858-5.83-3.972 0-6.481 4.556-7.859 5.83-4.29 3.952-9.561 4.654-15.275 8.21-2.853 1.774-1.943 4.68-1.943 4.68l3.529-.091c.676-2.1 10.03-8.158 17.7-11.499a9.64 9.64 0 0 1 7.689 0c7.67 3.341 17.024 9.4 17.7 11.499l3.529.09s.91-2.905-1.943-4.68z"></path><path fill="#D4E5F0" d="M181.833 24.248a.453.453 0 0 1-.455-.455V21.77c0-1.267.689-2.444 1.755-2.99 1.099-.565 1.255-1.722 1.053-2.541-.24-1.001-1.157-2.165-2.944-2.165-.39 0-1.209.52-1.476.078-.481-.8 1.001-.994 1.476-.994 2.32 0 3.516 1.54 3.835 2.866.357 1.482-.254 2.912-1.528 3.569-.767.396-1.261 1.248-1.261 2.177v2.022a.45.45 0 0 1-.455.455"></path><path fill="#C0DAEB" d="M198.654 78.061c1.956 9.88 12.72 42.874 12.72 42.874-1.41 2.496-3.789 5.759-7.254 6.403-3.224.604-4.322-1.651-7.936-1.502-5.636.234-6.955 5.597-11.83 5.759-4.81.163-6.344-4.992-12.032-5.746-5.466-.715-6.136 3.946-11.199 3.205-3.042-.442-6.143-2.691-9.165-7.696 0 0 10.543-31.454 12.285-44.694.097-.741.182-1.476.253-2.197l.202-2.6c.63-10.706-1.495-18.012-1.495-18.012l-4.446 4.147-12.201-8.365s6.188-9.022 9.328-12.857 13.565-6.949 13.565-6.949c.501 1.307 1.898 6.299 6.188 8.697.878.488 3.367 1.593 6.39 1.736 9.08.429 11.557-10.433 11.557-10.433s8.313 2.412 12.142 5.558c3.835 3.133 11.914 16.25 11.914 16.25l-11.498 8.014-5.987-5.447s-1.911 15.873-1.794 21.587v.156c.013.474.117 1.196.306 2.119z"></path><path fill="#D4E5F0" d="M198.654 78.061c1.956 9.88 12.72 42.874 12.72 42.874-1.41 2.496-3.789 5.759-7.254 6.403-3.224.604-4.322-1.651-7.936-1.502-5.636.234-6.955 5.597-11.83 5.759-4.81.163-6.344-4.992-12.032-5.746-5.466-.715-6.136 3.946-11.199 3.205-3.042-.442-6.143-2.691-9.165-7.696 0 0 10.543-31.454 12.285-44.694.097-.741.182-1.476.253-2.197l.202-2.6c.63-10.706-1.495-18.012-1.495-18.012l-4.446 4.147-12.201-8.365s6.188-9.022 9.328-12.857 13.565-6.949 13.565-6.949c.501 1.307 1.898 6.299 6.188 8.697.878.488 3.367 1.593 6.39 1.736 9.08.429 11.557-10.433 11.557-10.433s8.313 2.412 12.142 5.558c3.835 3.133 11.914 16.25 11.914 16.25l-11.498 8.014-5.987-5.447s-1.911 15.873-1.794 21.587v.156c.013.474.117 1.196.306 2.119z" opacity="0.4"></path><path stroke="#ECF4FA" stroke-miterlimit="10" stroke-width="1.3" d="M167.454 30.956s3.497 11.043 14.943 11.043 13.338-11.043 13.338-11.043"></path><path stroke="#ECF4FA" stroke-linecap="round" stroke-linejoin="round" stroke-width="0.689" d="M160.519 55.883a2.35 2.35 0 0 0-1.196-2.197 2.36 2.36 0 0 0-2.691.325c.468-.975.273-2.12-.442-2.808-.865-.826-2.334-.858-3.328.032.481-.923.26-2.021-.449-2.606-.851-.702-2.281-.546-3.042.487.111-.28.286-.858.176-1.573a3 3 0 0 0-.358-1.02"></path><path stroke="#ECF4FA" stroke-linecap="round" stroke-linejoin="round" stroke-width="0.702" d="M215.054 47.96a2.8 2.8 0 0 0-.39 1.059c-.111.709.071 1.28.182 1.54-.624-1.091-1.937-1.384-2.724-.896-.845.526-1.131 2.015-.214 3.042-.683-1.197-2.217-1.437-3.081-.755-.839.663-.982 2.145-.059 3.094-.851-1.163-2.437-1.208-3.165-.448-.611.637-.65 1.866.11 2.756-.52-.487-.91-.566-1.183-.54-.351.04-.877.306-.877.306"></path><path fill="#ECF4FA" d="M191.284 71.756c.968-.819 1.618-1.892 1.612-3.302-.013-2.288-2.022-4.31-4.479-4.505-1.176-.084-4.842.144-6.532 6.208-1.658-1.904-4.492-4.608-7.176-4.53-.943.019-2.295.396-3.38 2.06a5.2 5.2 0 0 0-.741 1.742c-2.971-1.54-5.064-3.296-5.896-4.056l.137 2.873c1.378 1.118 3.211 2.385 5.993 3.66.123.279.286.552.481.812 1.131 1.482 3.178 2.262 5.648 2.262q1.209 0 2.535-.254a15 15 0 0 0 2.048-.526.5.5 0 0 0 .162-.078.97.97 0 0 0 .501-.572c.156.032.312.039.474 0 .013 0 .026-.007.033-.007.143.397.513.696.955.709.065 0 .13.006.195.006 7.924.267 12.337-1.371 14.645-2.658l.156-2.503c-1.034.696-3.556 2.041-7.378 2.666zm-18.707-1.398c-.013-.565.24-1.111.513-1.534.631-.968 1.255-1.091 1.664-1.105 1.833-.038 4.401 2.399 6.065 4.427-3.081-.059-5.863-.806-8.242-1.794zm11.03 1.8s-.026.007-.039.007c.741-3.874 2.379-6.13 4.446-6.13q.117-.001.234.008c1.352.11 2.542 1.234 2.548 2.424.007 1.469-1.872 3.211-7.182 3.686z"></path><path fill="#ECF4FA" d="M177.693 83.209q-.196-.001-.384-.072a1.045 1.045 0 0 1-.591-1.358l3.523-8.957c.214-.54.819-.806 1.358-.591.54.214.806.819.592 1.358l-3.523 8.957a1.04 1.04 0 0 1-.975.663"></path><path fill="#ECF4FA" d="M184.452 83.417c-.488 0-.923-.344-1.027-.838l-2.022-9.841a1.05 1.05 0 0 1 .819-1.242 1.05 1.05 0 0 1 1.242.819l2.021 9.841a1.05 1.05 0 0 1-1.033 1.261"></path><path fill="#C0DAEB" d="M177.307 73.466c-.845 0-1.69-.124-2.431-.332-.962-.273-1.638-.767-2.002-1.469a2.72 2.72 0 0 1-.169-2.028l.462.163a2.2 2.2 0 0 0 .143 1.638c.299.578.871.988 1.703 1.222 1.826.513 4.283.494 5.648-.715l.325.37c-.929.82-2.301 1.15-3.672 1.15zM183.977 74.7c.494 0 5.421-.097 8.613-3.445l-.351-.337c-3.133 3.282-8.314 3.288-8.379 3.295l.124.488z"></path></svg>